<?xml version="1.0" encoding="UTF-8"?>
<!DOCTYPE svg PUBLIC "-//W3C//DTD SVG 1.1//EN" "http://www.w3.org/Graphics/SVG/1.1/DTD/svg11.dtd">
<svg xmlns="http://www.w3.org/2000/svg" version="1.1" width="1559px" height="2212px" style="shape-rendering:geometricPrecision; text-rendering:geometricPrecision; image-rendering:optimizeQuality; fill-rule:evenodd; clip-rule:evenodd" xmlns:xlink="http://www.w3.org/1999/xlink">
<g><path style="opacity:1" fill="#fefefe" d="M -0.5,-0.5 C -0.166667,-0.5 0.166667,-0.5 0.5,-0.5C 0.5,156.833 0.5,314.167 0.5,471.5C 245.334,471.833 490.001,471.5 734.5,470.5C 766.435,443.96 790.601,411.627 807,373.5C 827.618,316.68 821.284,263.013 788,212.5C 769.036,184.531 746.203,160.031 719.5,139C 669.393,101.105 614.393,71.7713 554.5,51C 460.522,18.7259 363.855,1.89253 264.5,0.5C 264.5,0.166667 264.5,-0.166667 264.5,-0.5C 363.833,-0.5 463.167,-0.5 562.5,-0.5C 617.587,10.3633 670.253,28.5299 720.5,54C 765.863,78.0175 805.363,109.517 839,148.5C 873.39,189.29 894.056,236.29 901,289.5C 904.858,355.933 884.858,413.933 841,463.5C 830.137,474.697 818.971,485.53 807.5,496C 538.219,706.796 269.553,918.296 1.5,1130.5C 0.167235,1325.33 0.167235,1520.33 1.5,1715.5C 2.10667,1715.38 2.44001,1715.04 2.5,1714.5C 340.291,1451.21 677.958,1187.71 1015.5,924C 1092.83,874.038 1161.66,813.872 1222,743.5C 1265.73,691.755 1300.06,634.089 1325,570.5C 1345.96,514.682 1354.63,457.016 1351,397.5C 1343.45,325.101 1315.79,261.768 1268,207.5C 1229.59,165.745 1185.43,131.579 1135.5,105C 1061.91,67.6919 984.576,41.3585 903.5,26C 818.762,10.1618 733.429,1.32849 647.5,-0.5C 951.167,-0.5 1254.83,-0.5 1558.5,-0.5C 1558.5,571.5 1558.5,1143.5 1558.5,1715.5C 1557.83,1715.17 1557.17,1714.83 1556.5,1714.5C 1358.25,1487.41 1159.41,1260.74 960,1034.5C 838.666,1129.01 717.499,1223.67 596.5,1318.5C 713.179,1451.18 830.179,1583.51 947.5,1715.5C 1151,1716.5 1354.67,1716.83 1558.5,1716.5C 1558.5,1797.83 1558.5,1879.17 1558.5,1960.5C 1552.41,1930.9 1535.41,1910.06 1507.5,1898C 1499.17,1895 1490.83,1892 1482.5,1889C 1454,1882.77 1425.67,1875.77 1397.5,1868C 1388.95,1865.15 1381.45,1860.65 1375,1854.5C 1369.07,1843.7 1370.57,1834.2 1379.5,1826C 1393.37,1817.24 1408.53,1813.41 1425,1814.5C 1439.77,1813.77 1453.61,1816.93 1466.5,1824C 1476.5,1832.16 1482.16,1842.66 1483.5,1855.5C 1505.17,1854.91 1526.84,1854.25 1548.5,1853.5C 1546.78,1818.23 1529.78,1793.4 1497.5,1779C 1473.89,1769.75 1449.39,1765.91 1424,1767.5C 1394.85,1766.05 1367.69,1772.55 1342.5,1787C 1311.43,1809.2 1302.27,1838.37 1315,1874.5C 1325,1893.5 1339.84,1907.33 1359.5,1916C 1368.68,1919.73 1378.01,1923.06 1387.5,1926C 1413.54,1932.12 1439.54,1938.45 1465.5,1945C 1475.45,1947.55 1483.62,1952.71 1490,1960.5C 1495.95,1975.47 1492.79,1988.3 1480.5,1999C 1470.37,2006.27 1459.04,2010.6 1446.5,2012C 1423.84,2015.84 1402.84,2011.84 1383.5,2000C 1371.31,1989.13 1363.65,1975.63 1360.5,1959.5C 1359.33,1959.17 1358.17,1958.83 1357,1958.5C 1337.2,1960.56 1317.36,1962.22 1297.5,1963.5C 1304.09,2014.92 1332.75,2046.09 1383.5,2057C 1423.42,2064.45 1462.76,2062.12 1501.5,2050C 1534.2,2037.37 1553.2,2013.87 1558.5,1979.5C 1558.5,2048.17 1558.5,2116.83 1558.5,2185.5C 1558.17,2185.5 1557.83,2185.5 1557.5,2185.5C 1546.74,2156.64 1535.41,2127.97 1523.5,2099.5C 1516.94,2098.19 1510.44,2098.19 1504,2099.5C 1492.93,2128.21 1481.76,2156.87 1470.5,2185.5C 1476.8,2186.5 1483.13,2186.83 1489.5,2186.5C 1491.34,2179.83 1493.67,2173.33 1496.5,2167C 1508.17,2166.33 1519.83,2166.33 1531.5,2167C 1534.25,2173.01 1536.59,2179.17 1538.5,2185.5C 1544.75,2187.46 1551.42,2188.13 1558.5,2187.5C 1558.5,2195.5 1558.5,2203.5 1558.5,2211.5C 1514.17,2211.5 1469.83,2211.5 1425.5,2211.5C 1430.54,2210.4 1435.04,2208.06 1439,2204.5C 1442.26,2197.24 1440.42,2191.74 1433.5,2188C 1449.7,2185.63 1459.7,2176.47 1463.5,2160.5C 1458.33,2158.2 1452.99,2156.2 1447.5,2154.5C 1445.32,2162.36 1440.66,2168.2 1433.5,2172C 1420.39,2174.87 1411.55,2170.04 1407,2157.5C 1405.58,2148.87 1405.25,2140.21 1406,2131.5C 1410.74,2114.21 1421.57,2108.71 1438.5,2115C 1442.51,2117.85 1444.84,2121.68 1445.5,2126.5C 1451.87,2126.04 1457.87,2124.37 1463.5,2121.5C 1455.85,2102.08 1441.51,2093.91 1420.5,2097C 1397.84,2103.28 1386.84,2118.28 1387.5,2142C 1386.23,2164.31 1395.89,2179.48 1416.5,2187.5C 1415.5,2189.5 1414.5,2191.5 1413.5,2193.5C 1417.38,2193.59 1421.38,2193.75 1425.5,2194C 1430.83,2197 1430.83,2200 1425.5,2203C 1419.51,2203.5 1413.51,2203.67 1407.5,2203.5C 1407.28,2206.28 1407.61,2208.95 1408.5,2211.5C 938.833,2211.5 469.167,2211.5 -0.5,2211.5C -0.5,2190.83 -0.5,2170.17 -0.5,2149.5C 5.01672,2177.28 22.0167,2190.12 50.5,2188C 61.8791,2186.73 72.0458,2182.56 81,2175.5C 81.4999,2163.5 81.6665,2151.5 81.5,2139.5C 68.8333,2139.5 56.1667,2139.5 43.5,2139.5C 43.5,2144.5 43.5,2149.5 43.5,2154.5C 50.1667,2154.5 56.8333,2154.5 63.5,2154.5C 63.8242,2158.55 63.4909,2162.55 62.5,2166.5C 51.6216,2174.56 40.2883,2175.39 28.5,2169C 20.9383,2161.66 17.2716,2152.66 17.5,2142C 19.0944,2116.06 32.0944,2107.39 56.5,2116C 59.3605,2118.22 61.3605,2121.05 62.5,2124.5C 68.2016,2124.9 73.8683,2124.23 79.5,2122.5C 78.437,2111.89 72.7703,2104.39 62.5,2100C 47.3493,2094.56 32.6826,2095.56 18.5,2103C 8.50062,2110.51 2.16728,2120.34 -0.5,2132.5C -0.5,2106.83 -0.5,2081.17 -0.5,2055.5C 21.1667,2055.5 42.8333,2055.5 64.5,2055.5C 64.5,2016.17 64.5,1976.83 64.5,1937.5C 81.422,1936.49 98.0887,1937.99 114.5,1942C 124.445,1946.94 132.945,1953.77 140,1962.5C 163.853,1993.57 187.687,2024.57 211.5,2055.5C 237.003,2056.83 262.67,2056.83 288.5,2055.5C 288.376,2054.89 288.043,2054.56 287.5,2054.5C 265.899,2022.31 243.065,1990.98 219,1960.5C 207.361,1948.1 193.861,1938.27 178.5,1931C 195.238,1928.48 211.238,1923.48 226.5,1916C 256.21,1896.38 267.71,1868.88 261,1833.5C 250.311,1798.83 226.811,1779.33 190.5,1775C 183.811,1774.55 177.144,1773.89 170.5,1773C 113.501,1772.5 56.501,1772.33 -0.5,1772.5C -0.5,1181.5 -0.5,590.5 -0.5,-0.5 Z"/></g>
<g><path style="opacity:1" fill="#2493dd" d="M 562.5,-0.5 C 590.833,-0.5 619.167,-0.5 647.5,-0.5C 733.429,1.32849 818.762,10.1618 903.5,26C 984.576,41.3585 1061.91,67.6919 1135.5,105C 1185.43,131.579 1229.59,165.745 1268,207.5C 1315.79,261.768 1343.45,325.101 1351,397.5C 1354.63,457.016 1345.96,514.682 1325,570.5C 1300.06,634.089 1265.73,691.755 1222,743.5C 1161.66,813.872 1092.83,874.038 1015.5,924C 677.958,1187.71 340.291,1451.21 2.5,1714.5C 1.50029,1520 1.16695,1325.33 1.5,1130.5C 269.553,918.296 538.219,706.796 807.5,496C 818.971,485.53 830.137,474.697 841,463.5C 884.858,413.933 904.858,355.933 901,289.5C 894.056,236.29 873.39,189.29 839,148.5C 805.363,109.517 765.863,78.0175 720.5,54C 670.253,28.5299 617.587,10.3633 562.5,-0.5 Z"/></g>
<g><path style="opacity:1" fill="#6c6dae" d="M 0.5,-0.5 C 88.5,-0.5 176.5,-0.5 264.5,-0.5C 264.5,-0.166667 264.5,0.166667 264.5,0.5C 176.833,0.5 89.1667,0.5 1.5,0.5C 1.5,157.167 1.5,313.833 1.5,470.5C 245.833,470.5 490.167,470.5 734.5,470.5C 490.001,471.5 245.334,471.833 0.5,471.5C 0.5,314.167 0.5,156.833 0.5,-0.5 Z"/></g>
<g><path style="opacity:1" fill="#3e4095" d="M 264.5,0.5 C 363.855,1.89253 460.522,18.7259 554.5,51C 614.393,71.7713 669.393,101.105 719.5,139C 746.203,160.031 769.036,184.531 788,212.5C 821.284,263.013 827.618,316.68 807,373.5C 790.601,411.627 766.435,443.96 734.5,470.5C 490.167,470.5 245.833,470.5 1.5,470.5C 1.5,313.833 1.5,157.167 1.5,0.5C 89.1667,0.5 176.833,0.5 264.5,0.5 Z"/></g>
<g><path style="opacity:1" fill="#3e4095" d="M 1556.5,1714.5 C 1353.67,1715.5 1150.67,1715.83 947.5,1715.5C 830.179,1583.51 713.179,1451.18 596.5,1318.5C 717.499,1223.67 838.666,1129.01 960,1034.5C 1159.41,1260.74 1358.25,1487.41 1556.5,1714.5 Z"/></g>
<g><path style="opacity:1" fill="#44a3e2" d="M 1.5,1130.5 C 1.16695,1325.33 1.50029,1520 2.5,1714.5C 2.44001,1715.04 2.10667,1715.38 1.5,1715.5C 0.167235,1520.33 0.167235,1325.33 1.5,1130.5 Z"/></g>
<g><path style="opacity:1" fill="#686aac" d="M 1556.5,1714.5 C 1557.17,1714.83 1557.83,1715.17 1558.5,1715.5C 1558.5,1715.83 1558.5,1716.17 1558.5,1716.5C 1354.67,1716.83 1151,1716.5 947.5,1715.5C 1150.67,1715.83 1353.67,1715.5 1556.5,1714.5 Z"/></g>
<g><path style="opacity:1" fill="#3e4095" d="M 1558.5,1960.5 C 1558.5,1966.83 1558.5,1973.17 1558.5,1979.5C 1553.2,2013.87 1534.2,2037.37 1501.5,2050C 1462.76,2062.12 1423.42,2064.45 1383.5,2057C 1332.75,2046.09 1304.09,2014.92 1297.5,1963.5C 1317.36,1962.22 1337.2,1960.56 1357,1958.5C 1358.17,1958.83 1359.33,1959.17 1360.5,1959.5C 1363.65,1975.63 1371.31,1989.13 1383.5,2000C 1402.84,2011.84 1423.84,2015.84 1446.5,2012C 1459.04,2010.6 1470.37,2006.27 1480.5,1999C 1492.79,1988.3 1495.95,1975.47 1490,1960.5C 1483.62,1952.71 1475.45,1947.55 1465.5,1945C 1439.54,1938.45 1413.54,1932.12 1387.5,1926C 1378.01,1923.06 1368.68,1919.73 1359.5,1916C 1339.84,1907.33 1325,1893.5 1315,1874.5C 1302.27,1838.37 1311.43,1809.2 1342.5,1787C 1367.69,1772.55 1394.85,1766.05 1424,1767.5C 1449.39,1765.91 1473.89,1769.75 1497.5,1779C 1529.78,1793.4 1546.78,1818.23 1548.5,1853.5C 1526.84,1854.25 1505.17,1854.91 1483.5,1855.5C 1482.16,1842.66 1476.5,1832.16 1466.5,1824C 1453.61,1816.93 1439.77,1813.77 1425,1814.5C 1408.53,1813.41 1393.37,1817.24 1379.5,1826C 1370.57,1834.2 1369.07,1843.7 1375,1854.5C 1381.45,1860.65 1388.95,1865.15 1397.5,1868C 1425.67,1875.77 1454,1882.77 1482.5,1889C 1490.83,1892 1499.17,1895 1507.5,1898C 1535.41,1910.06 1552.41,1930.9 1558.5,1960.5 Z"/></g>
<g><path style="opacity:1" fill="#3e4095" d="M -0.5,1772.5 C 56.501,1772.33 113.501,1772.5 170.5,1773C 177.144,1773.89 183.811,1774.55 190.5,1775C 226.811,1779.33 250.311,1798.83 261,1833.5C 267.71,1868.88 256.21,1896.38 226.5,1916C 211.238,1923.48 195.238,1928.48 178.5,1931C 193.861,1938.27 207.361,1948.1 219,1960.5C 243.065,1990.98 265.899,2022.31 287.5,2054.5C 262.339,2055.5 237.005,2055.83 211.5,2055.5C 187.687,2024.57 163.853,1993.57 140,1962.5C 132.945,1953.77 124.445,1946.94 114.5,1942C 98.0887,1937.99 81.422,1936.49 64.5,1937.5C 64.5,1976.83 64.5,2016.17 64.5,2055.5C 42.8333,2055.5 21.1667,2055.5 -0.5,2055.5C -0.5,1961.17 -0.5,1866.83 -0.5,1772.5 Z"/></g>
<g><path style="opacity:1" fill="#3e4095" d="M 468.5,2055.5 C 445.661,2055.83 422.994,2055.5 400.5,2054.5C 441.213,1960.74 482.213,1867.07 523.5,1773.5C 546.833,1772.17 570.167,1772.17 593.5,1773.5C 636.167,1867.17 678.833,1960.83 721.5,2054.5C 698.167,2055.83 674.833,2055.83 651.5,2054.5C 642.5,2033.83 633.5,2013.17 624.5,1992.5C 581.167,1991.17 537.833,1991.17 494.5,1992.5C 485.544,2013.41 476.878,2034.41 468.5,2055.5 Z"/></g>
<g><path style="opacity:1" fill="#8282ba" d="M 993.5,1772.5 C 950.833,1772.5 908.167,1772.5 865.5,1772.5C 865.5,1866.83 865.5,1961.17 865.5,2055.5C 911.5,2055.5 957.5,2055.5 1003.5,2055.5C 957.336,2056.5 911.003,2056.83 864.5,2056.5C 864.5,1961.5 864.5,1866.5 864.5,1771.5C 907.67,1771.17 950.67,1771.5 993.5,1772.5 Z"/></g>
<g><path style="opacity:1" fill="#3e4095" d="M 993.5,1772.5 C 1020.79,1771.42 1046.79,1776.59 1071.5,1788C 1110.1,1812.66 1130.6,1848.16 1133,1894.5C 1137.54,1930.44 1131.54,1964.44 1115,1996.5C 1098.79,2024.37 1074.96,2042.2 1043.5,2050C 1030.41,2053.58 1017.07,2055.42 1003.5,2055.5C 957.5,2055.5 911.5,2055.5 865.5,2055.5C 865.5,1961.17 865.5,1866.83 865.5,1772.5C 908.167,1772.5 950.833,1772.5 993.5,1772.5 Z"/></g>
<g><path style="opacity:1" fill="#c3c3de" d="M 149.5,1820.5 C 121.5,1820.5 93.5,1820.5 65.5,1820.5C 65.5,1844.17 65.5,1867.83 65.5,1891.5C 91.1667,1891.5 116.833,1891.5 142.5,1891.5C 116.672,1892.5 90.672,1892.83 64.5,1892.5C 64.5,1868.17 64.5,1843.83 64.5,1819.5C 93.0049,1819.17 121.338,1819.5 149.5,1820.5 Z"/></g>
<g><path style="opacity:1" fill="#fefefe" d="M 149.5,1820.5 C 166.182,1818.89 180.016,1824.22 191,1836.5C 192.608,1839.38 193.941,1842.38 195,1845.5C 199.109,1867.13 190.943,1881.63 170.5,1889C 161.198,1890.22 151.865,1891.05 142.5,1891.5C 116.833,1891.5 91.1667,1891.5 65.5,1891.5C 65.5,1867.83 65.5,1844.17 65.5,1820.5C 93.5,1820.5 121.5,1820.5 149.5,1820.5 Z"/></g>
<g><path style="opacity:1" fill="#a9aad0" d="M 976.5,1820.5 C 961.167,1820.5 945.833,1820.5 930.5,1820.5C 930.5,1882.83 930.5,1945.17 930.5,2007.5C 950.833,2007.5 971.167,2007.5 991.5,2007.5C 971.007,2008.5 950.34,2008.83 929.5,2008.5C 929.5,1945.5 929.5,1882.5 929.5,1819.5C 945.342,1819.17 961.009,1819.5 976.5,1820.5 Z"/></g>
<g><path style="opacity:1" fill="#fefefe" d="M 976.5,1820.5 C 996.348,1818.95 1015.35,1822.11 1033.5,1830C 1049.99,1840.77 1060.15,1855.94 1064,1875.5C 1064.96,1880.12 1065.62,1884.79 1066,1889.5C 1066.67,1905.5 1066.67,1921.5 1066,1937.5C 1065.24,1953.55 1060.9,1968.55 1053,1982.5C 1043.52,1995.61 1030.69,2003.44 1014.5,2006C 1006.88,2007.21 999.214,2007.71 991.5,2007.5C 971.167,2007.5 950.833,2007.5 930.5,2007.5C 930.5,1945.17 930.5,1882.83 930.5,1820.5C 945.833,1820.5 961.167,1820.5 976.5,1820.5 Z"/></g>
<g><path style="opacity:1" fill="#fdfdfd" d="M 557.5,1838.5 C 572.982,1872.81 587.982,1907.48 602.5,1942.5C 573.172,1943.67 543.839,1943.83 514.5,1943C 529.251,1908.33 543.585,1873.5 557.5,1838.5 Z"/></g>
<g><path style="opacity:1" fill="#9b9cc8" d="M 287.5,2054.5 C 288.043,2054.56 288.376,2054.89 288.5,2055.5C 262.67,2056.83 237.003,2056.83 211.5,2055.5C 237.005,2055.83 262.339,2055.5 287.5,2054.5 Z"/></g>
<g><path style="opacity:1" fill="#9b9cc8" d="M 400.5,2054.5 C 422.994,2055.5 445.661,2055.83 468.5,2055.5C 445.663,2056.83 422.663,2056.83 399.5,2055.5C 399.624,2054.89 399.957,2054.56 400.5,2054.5 Z"/></g>
<g><path style="opacity:1" fill="#434497" d="M 358.5,2075.5 C 361.85,2075.33 365.183,2075.5 368.5,2076C 372.517,2077.93 376.684,2079.43 381,2080.5C 384.082,2080.25 385.582,2078.58 385.5,2075.5C 388.167,2075.5 390.833,2075.5 393.5,2075.5C 394.151,2086.35 389.151,2091.18 378.5,2090C 373.016,2086.49 367.182,2085.32 361,2086.5C 360.51,2087.79 360.343,2089.13 360.5,2090.5C 357.833,2090.5 355.167,2090.5 352.5,2090.5C 351.512,2084.16 353.512,2079.16 358.5,2075.5 Z"/></g>
<g><path style="opacity:1" fill="#404296" d="M -0.5,2149.5 C -0.5,2143.83 -0.5,2138.17 -0.5,2132.5C 2.16728,2120.34 8.50062,2110.51 18.5,2103C 32.6826,2095.56 47.3493,2094.56 62.5,2100C 72.7703,2104.39 78.437,2111.89 79.5,2122.5C 73.8683,2124.23 68.2016,2124.9 62.5,2124.5C 61.3605,2121.05 59.3605,2118.22 56.5,2116C 32.0944,2107.39 19.0944,2116.06 17.5,2142C 17.2716,2152.66 20.9383,2161.66 28.5,2169C 40.2883,2175.39 51.6216,2174.56 62.5,2166.5C 63.4909,2162.55 63.8242,2158.55 63.5,2154.5C 56.8333,2154.5 50.1667,2154.5 43.5,2154.5C 43.5,2149.5 43.5,2144.5 43.5,2139.5C 56.1667,2139.5 68.8333,2139.5 81.5,2139.5C 81.6665,2151.5 81.4999,2163.5 81,2175.5C 72.0458,2182.56 61.8791,2186.73 50.5,2188C 22.0167,2190.12 5.01672,2177.28 -0.5,2149.5 Z"/></g>
<g><path style="opacity:1" fill="#414396" d="M 202.5,2096.5 C 213.395,2095.32 223.728,2097.16 233.5,2102C 240.787,2107.74 244.453,2115.24 244.5,2124.5C 238.5,2124.5 232.5,2124.5 226.5,2124.5C 225.419,2115.1 220.086,2110.76 210.5,2111.5C 205.192,2111.1 200.692,2112.77 197,2116.5C 195.291,2123.14 197.791,2127.3 204.5,2129C 215.921,2131.47 226.921,2135.14 237.5,2140C 248.594,2150.33 250.427,2162.17 243,2175.5C 236.87,2183.48 228.704,2187.65 218.5,2188C 194.163,2191.53 179.83,2181.36 175.5,2157.5C 181.509,2157.3 187.509,2156.97 193.5,2156.5C 196.938,2171.73 206.271,2176.89 221.5,2172C 230.246,2167.37 231.579,2161.37 225.5,2154C 215.891,2150.85 206.225,2147.85 196.5,2145C 180.151,2137.29 175.651,2125.12 183,2108.5C 188.18,2102.33 194.68,2098.33 202.5,2096.5 Z"/></g>
<g><path style="opacity:1" fill="#414296" d="M 456.5,2096.5 C 493.749,2095.92 510.916,2114.25 508,2151.5C 503.384,2175.78 488.717,2188.12 464,2188.5C 444.102,2187.92 431.102,2178.25 425,2159.5C 418.581,2137.88 423.415,2119.38 439.5,2104C 444.872,2100.61 450.538,2098.11 456.5,2096.5 Z"/></g>
<g><path style="opacity:1" fill="#414296" d="M 838.5,2118.5 C 838.5,2120.17 838.5,2121.83 838.5,2123.5C 832.833,2123.5 827.167,2123.5 821.5,2123.5C 820.61,2117.56 817.277,2113.73 811.5,2112C 803.545,2110.05 796.711,2111.88 791,2117.5C 790.07,2120.85 790.903,2123.68 793.5,2126C 804.396,2129.92 815.396,2133.58 826.5,2137C 839.484,2143.14 844.317,2153.31 841,2167.5C 836.59,2181.22 827.09,2188.06 812.5,2188C 788.552,2191.22 774.552,2181.05 770.5,2157.5C 776.248,2157.21 781.915,2157.21 787.5,2157.5C 792.888,2172.85 803.221,2177.35 818.5,2171C 825.342,2165.85 826.008,2160.18 820.5,2154C 810.88,2150.85 801.213,2147.85 791.5,2145C 778.389,2139.94 772.556,2130.44 774,2116.5C 777.586,2104.95 785.42,2098.45 797.5,2097C 811.558,2094.39 823.725,2097.89 834,2107.5C 836.616,2110.73 838.116,2114.4 838.5,2118.5 Z"/></g>
<g><path style="opacity:1" fill="#404296" d="M 972.5,2096.5 C 983.876,2095.24 994.543,2097.4 1004.5,2103C 1011.73,2107.95 1016.06,2114.78 1017.5,2123.5C 1012.25,2123.47 1007.08,2124.14 1002,2125.5C 998.759,2123.72 996.425,2121.06 995,2117.5C 990.636,2113.4 985.47,2111.74 979.5,2112.5C 965.84,2112.32 957.674,2118.98 955,2132.5C 953.531,2142.92 954.865,2152.92 959,2162.5C 971.649,2176.06 985.316,2177.06 1000,2165.5C 1000.5,2161.85 1000.67,2158.18 1000.5,2154.5C 993.833,2154.5 987.167,2154.5 980.5,2154.5C 980.5,2149.5 980.5,2144.5 980.5,2139.5C 993.167,2139.5 1005.83,2139.5 1018.5,2139.5C 1018.83,2151.52 1018.5,2163.52 1017.5,2175.5C 996.738,2190.97 975.071,2192.47 952.5,2180C 938.349,2166.48 933.182,2149.98 937,2130.5C 941.913,2111.75 953.746,2100.42 972.5,2096.5 Z"/></g>
<g><path style="opacity:1" fill="#414396" d="M 1425.5,2211.5 C 1419.83,2211.5 1414.17,2211.5 1408.5,2211.5C 1407.61,2208.95 1407.28,2206.28 1407.5,2203.5C 1413.51,2203.67 1419.51,2203.5 1425.5,2203C 1430.83,2200 1430.83,2197 1425.5,2194C 1421.38,2193.75 1417.38,2193.59 1413.5,2193.5C 1414.5,2191.5 1415.5,2189.5 1416.5,2187.5C 1395.89,2179.48 1386.23,2164.31 1387.5,2142C 1386.84,2118.28 1397.84,2103.28 1420.5,2097C 1441.51,2093.91 1455.85,2102.08 1463.5,2121.5C 1457.87,2124.37 1451.87,2126.04 1445.5,2126.5C 1444.84,2121.68 1442.51,2117.85 1438.5,2115C 1421.57,2108.71 1410.74,2114.21 1406,2131.5C 1405.25,2140.21 1405.58,2148.87 1407,2157.5C 1411.55,2170.04 1420.39,2174.87 1433.5,2172C 1440.66,2168.2 1445.32,2162.36 1447.5,2154.5C 1452.99,2156.2 1458.33,2158.2 1463.5,2160.5C 1459.7,2176.47 1449.7,2185.63 1433.5,2188C 1440.42,2191.74 1442.26,2197.24 1439,2204.5C 1435.04,2208.06 1430.54,2210.4 1425.5,2211.5 Z"/></g>
<g><path style="opacity:1" fill="#3f4095" d="M 116.5,2132.5 C 130.657,2133.5 144.99,2133.83 159.5,2133.5C 159.5,2138.17 159.5,2142.83 159.5,2147.5C 144.833,2147.5 130.167,2147.5 115.5,2147.5C 115.174,2155.68 115.508,2163.68 116.5,2171.5C 132.325,2172.5 148.325,2172.83 164.5,2172.5C 164.5,2177.17 164.5,2181.83 164.5,2186.5C 142.5,2186.5 120.5,2186.5 98.5,2186.5C 98.5,2157.17 98.5,2127.83 98.5,2098.5C 120.167,2098.5 141.833,2098.5 163.5,2098.5C 163.5,2103.5 163.5,2108.5 163.5,2113.5C 147.833,2113.5 132.167,2113.5 116.5,2113.5C 116.5,2119.83 116.5,2126.17 116.5,2132.5 Z"/></g>
<g><path style="opacity:1" fill="#3e4095" d="M 325.5,2098.5 C 325.5,2103.17 325.5,2107.83 325.5,2112.5C 316.983,2112.17 308.65,2112.51 300.5,2113.5C 299.502,2137.66 299.169,2161.99 299.5,2186.5C 293.833,2186.5 288.167,2186.5 282.5,2186.5C 282.5,2162.17 282.5,2137.83 282.5,2113.5C 273.833,2113.5 265.167,2113.5 256.5,2113.5C 256.5,2108.5 256.5,2103.5 256.5,2098.5C 279.5,2098.5 302.5,2098.5 325.5,2098.5 Z"/></g>
<g><path style="opacity:1" fill="#3f4195" d="M 347.5,2186.5 C 341.31,2186.82 335.31,2186.49 329.5,2185.5C 340.101,2156.7 351.101,2128.03 362.5,2099.5C 368.807,2098.34 375.141,2098.17 381.5,2099C 393.456,2127.7 405.122,2156.53 416.5,2185.5C 410.167,2186.83 403.833,2186.83 397.5,2185.5C 395.167,2179.5 392.833,2173.5 390.5,2167.5C 378.5,2166.17 366.5,2166.17 354.5,2167.5C 351.963,2173.78 349.63,2180.11 347.5,2186.5 Z"/></g>
<g><path style="opacity:1" fill="#3f4095" d="M 574.5,2132.5 C 588.657,2133.5 602.99,2133.83 617.5,2133.5C 617.5,2138.17 617.5,2142.83 617.5,2147.5C 602.833,2147.5 588.167,2147.5 573.5,2147.5C 573.174,2155.68 573.508,2163.68 574.5,2171.5C 590.325,2172.5 606.325,2172.83 622.5,2172.5C 622.5,2177.17 622.5,2181.83 622.5,2186.5C 600.5,2186.5 578.5,2186.5 556.5,2186.5C 556.5,2157.17 556.5,2127.83 556.5,2098.5C 578.167,2098.5 599.833,2098.5 621.5,2098.5C 621.5,2103.5 621.5,2108.5 621.5,2113.5C 605.833,2113.5 590.167,2113.5 574.5,2113.5C 574.5,2119.83 574.5,2126.17 574.5,2132.5 Z"/></g>
<g><path style="opacity:1" fill="#3f4195" d="M 722.5,2098.5 C 722.5,2127.83 722.5,2157.17 722.5,2186.5C 717.167,2186.5 711.833,2186.5 706.5,2186.5C 706.667,2163.83 706.5,2141.16 706,2118.5C 700.181,2141.11 694.681,2163.78 689.5,2186.5C 683.5,2186.5 677.5,2186.5 671.5,2186.5C 666.925,2165.71 661.925,2145.04 656.5,2124.5C 656.313,2122.44 655.813,2120.44 655,2118.5C 654.5,2141.16 654.333,2163.83 654.5,2186.5C 649.167,2186.5 643.833,2186.5 638.5,2186.5C 638.5,2157.17 638.5,2127.83 638.5,2098.5C 647.5,2098.5 656.5,2098.5 665.5,2098.5C 670.096,2118.35 675.263,2138.01 681,2157.5C 685.995,2137.85 690.828,2118.19 695.5,2098.5C 704.5,2098.5 713.5,2098.5 722.5,2098.5 Z"/></g>
<g><path style="opacity:1" fill="#9d9dc9" d="M 722.5,2098.5 C 723.498,2128 723.831,2157.66 723.5,2187.5C 717.642,2187.82 711.975,2187.49 706.5,2186.5C 711.833,2186.5 717.167,2186.5 722.5,2186.5C 722.5,2157.17 722.5,2127.83 722.5,2098.5 Z"/></g>
<g><path style="opacity:1" fill="#3e4095" d="M 921.5,2098.5 C 921.5,2103.17 921.5,2107.83 921.5,2112.5C 905.658,2112.17 889.991,2112.5 874.5,2113.5C 874.5,2120.17 874.5,2126.83 874.5,2133.5C 889.167,2133.5 903.833,2133.5 918.5,2133.5C 918.5,2138.17 918.5,2142.83 918.5,2147.5C 903.833,2147.5 889.167,2147.5 874.5,2147.5C 874.5,2155.5 874.5,2163.5 874.5,2171.5C 890.658,2172.5 906.991,2172.83 923.5,2172.5C 923.5,2177.17 923.5,2181.83 923.5,2186.5C 901.5,2186.5 879.5,2186.5 857.5,2186.5C 857.5,2157.17 857.5,2127.83 857.5,2098.5C 878.833,2098.5 900.167,2098.5 921.5,2098.5 Z"/></g>
<g><path style="opacity:1" fill="#404196" d="M 1034.5,2098.5 C 1040.5,2098.5 1046.5,2098.5 1052.5,2098.5C 1052.33,2119.17 1052.5,2139.84 1053,2160.5C 1055.43,2169.31 1061.26,2173.64 1070.5,2173.5C 1078.64,2173.85 1083.8,2170.18 1086,2162.5C 1087.43,2141.21 1087.93,2119.87 1087.5,2098.5C 1093.17,2098.5 1098.83,2098.5 1104.5,2098.5C 1104.67,2119.5 1104.5,2140.5 1104,2161.5C 1103.45,2175.05 1096.61,2183.55 1083.5,2187C 1073.05,2189.33 1062.72,2188.99 1052.5,2186C 1040.2,2180.17 1034.36,2170.34 1035,2156.5C 1034.5,2137.17 1034.33,2117.84 1034.5,2098.5 Z"/></g>
<g><path style="opacity:1" fill="#404296" d="M 1123.5,2098.5 C 1141.87,2098.1 1160.2,2098.6 1178.5,2100C 1186.89,2102.06 1192.39,2107.23 1195,2115.5C 1197.96,2133.09 1190.79,2143.92 1173.5,2148C 1177.63,2151.13 1181.47,2154.63 1185,2158.5C 1190.96,2167.58 1196.79,2176.75 1202.5,2186C 1195.5,2186.67 1188.5,2186.67 1181.5,2186C 1174.96,2177.09 1168.8,2167.93 1163,2158.5C 1157.7,2151.12 1150.53,2148.12 1141.5,2149.5C 1141.5,2161.83 1141.5,2174.17 1141.5,2186.5C 1135.5,2186.5 1129.5,2186.5 1123.5,2186.5C 1123.5,2157.17 1123.5,2127.83 1123.5,2098.5 Z"/></g>
<g><path style="opacity:1" fill="#3f4195" d="M 1222.5,2186.5 C 1216.31,2186.82 1210.31,2186.49 1204.5,2185.5C 1215.1,2156.7 1226.1,2128.03 1237.5,2099.5C 1243.81,2098.34 1250.14,2098.17 1256.5,2099C 1268.46,2127.7 1280.12,2156.53 1291.5,2185.5C 1285.17,2186.83 1278.83,2186.83 1272.5,2185.5C 1270.17,2179.5 1267.83,2173.5 1265.5,2167.5C 1253.5,2166.17 1241.5,2166.17 1229.5,2167.5C 1226.96,2173.78 1224.63,2180.11 1222.5,2186.5 Z"/></g>
<g><path style="opacity:1" fill="#3e4095" d="M 1353.5,2155.5 C 1353.78,2156.29 1354.28,2156.96 1355,2157.5C 1355.5,2137.84 1355.67,2118.17 1355.5,2098.5C 1360.83,2098.5 1366.17,2098.5 1371.5,2098.5C 1371.5,2127.83 1371.5,2157.17 1371.5,2186.5C 1365.49,2186.67 1359.49,2186.5 1353.5,2186C 1341.54,2167.25 1329.71,2148.42 1318,2129.5C 1317.5,2148.5 1317.33,2167.5 1317.5,2186.5C 1312.17,2186.5 1306.83,2186.5 1301.5,2186.5C 1301.5,2157.17 1301.5,2127.83 1301.5,2098.5C 1307.54,2098.17 1313.54,2098.5 1319.5,2099.5C 1330.84,2118.19 1342.18,2136.86 1353.5,2155.5 Z"/></g>
<g><path style="opacity:1" fill="#9697c5" d="M 1355.5,2098.5 C 1355.67,2118.17 1355.5,2137.84 1355,2157.5C 1354.28,2156.96 1353.78,2156.29 1353.5,2155.5C 1354.17,2136.5 1354.83,2117.5 1355.5,2098.5 Z"/></g>
<g><path style="opacity:1" fill="#3f4195" d="M 1557.5,2185.5 C 1551.27,2186.81 1544.93,2186.81 1538.5,2185.5C 1536.59,2179.17 1534.25,2173.01 1531.5,2167C 1519.83,2166.33 1508.17,2166.33 1496.5,2167C 1493.67,2173.33 1491.34,2179.83 1489.5,2186.5C 1483.13,2186.83 1476.8,2186.5 1470.5,2185.5C 1481.76,2156.87 1492.93,2128.21 1504,2099.5C 1510.44,2098.19 1516.94,2098.19 1523.5,2099.5C 1535.41,2127.97 1546.74,2156.64 1557.5,2185.5 Z"/></g>
<g><path style="opacity:1" fill="#7475b3" d="M 325.5,2098.5 C 326.487,2103.31 326.821,2108.31 326.5,2113.5C 317.833,2113.5 309.167,2113.5 300.5,2113.5C 308.65,2112.51 316.983,2112.17 325.5,2112.5C 325.5,2107.83 325.5,2103.17 325.5,2098.5 Z"/></g>
<g><path style="opacity:1" fill="#fdfdfe" d="M 457.5,2112.5 C 473.252,2109.62 483.752,2115.62 489,2130.5C 490.115,2140.32 489.448,2149.99 487,2159.5C 478.133,2173.68 466.3,2176.85 451.5,2169C 446.239,2164.73 443.072,2159.23 442,2152.5C 441.095,2144.09 441.428,2135.76 443,2127.5C 446.021,2120.65 450.855,2115.65 457.5,2112.5 Z"/></g>
<g><path style="opacity:1" fill="#6466aa" d="M 921.5,2098.5 C 922.487,2103.31 922.821,2108.31 922.5,2113.5C 906.833,2113.5 891.167,2113.5 875.5,2113.5C 875.167,2113.5 874.833,2113.5 874.5,2113.5C 889.991,2112.5 905.658,2112.17 921.5,2112.5C 921.5,2107.83 921.5,2103.17 921.5,2098.5 Z"/></g>
<g><path style="opacity:1" fill="#9798c6" d="M 300.5,2113.5 C 300.5,2138.17 300.5,2162.83 300.5,2187.5C 294.31,2187.82 288.31,2187.49 282.5,2186.5C 288.167,2186.5 293.833,2186.5 299.5,2186.5C 299.169,2161.99 299.502,2137.66 300.5,2113.5 Z"/></g>
<g><path style="opacity:1" fill="#fdfdfd" d="M 1141.5,2113.5 C 1150.84,2113.33 1160.17,2113.5 1169.5,2114C 1177.5,2116.98 1179.66,2122.48 1176,2130.5C 1174.46,2132.38 1172.62,2133.88 1170.5,2135C 1160.84,2135.5 1151.17,2135.67 1141.5,2135.5C 1141.5,2128.17 1141.5,2120.83 1141.5,2113.5 Z"/></g>
<g><path style="opacity:1" fill="#f9f9fc" d="M 383.5,2150.5 C 376.018,2151.49 368.352,2151.83 360.5,2151.5C 364.031,2140.74 367.864,2130.08 372,2119.5C 376.326,2129.64 380.159,2139.98 383.5,2150.5 Z"/></g>
<g><path style="opacity:1" fill="#f9f9fc" d="M 1258.5,2150.5 C 1251.02,2151.49 1243.35,2151.83 1235.5,2151.5C 1239.03,2140.74 1242.86,2130.08 1247,2119.5C 1251.33,2129.64 1255.16,2139.98 1258.5,2150.5 Z"/></g>
<g><path style="opacity:1" fill="#f9f9fb" d="M 1525.5,2151.5 C 1517.65,2151.83 1509.98,2151.49 1502.5,2150.5C 1505.78,2139.95 1509.61,2129.62 1514,2119.5C 1518.14,2130.09 1521.97,2140.75 1525.5,2151.5 Z"/></g>
<g><path style="opacity:1" fill="#9191c2" d="M 838.5,2118.5 C 839.461,2120.26 839.795,2122.26 839.5,2124.5C 833.31,2124.82 827.31,2124.49 821.5,2123.5C 827.167,2123.5 832.833,2123.5 838.5,2123.5C 838.5,2121.83 838.5,2120.17 838.5,2118.5 Z"/></g>
<g><path style="opacity:1" fill="#9c9dc8" d="M 874.5,2113.5 C 874.833,2113.5 875.167,2113.5 875.5,2113.5C 875.5,2119.83 875.5,2126.17 875.5,2132.5C 890.167,2132.5 904.833,2132.5 919.5,2132.5C 919.821,2137.69 919.487,2142.69 918.5,2147.5C 918.5,2142.83 918.5,2138.17 918.5,2133.5C 903.833,2133.5 889.167,2133.5 874.5,2133.5C 874.5,2126.83 874.5,2120.17 874.5,2113.5 Z"/></g>
<g><path style="opacity:1" fill="#e1e1ef" d="M 656.5,2124.5 C 655.833,2145.17 655.167,2165.83 654.5,2186.5C 654.333,2163.83 654.5,2141.16 655,2118.5C 655.813,2120.44 656.313,2122.44 656.5,2124.5 Z"/></g>
<g><path style="opacity:1" fill="#9e9ec9" d="M 116.5,2132.5 C 131.167,2132.5 145.833,2132.5 160.5,2132.5C 160.5,2137.83 160.5,2143.17 160.5,2148.5C 145.833,2148.5 131.167,2148.5 116.5,2148.5C 116.5,2156.17 116.5,2163.83 116.5,2171.5C 115.508,2163.68 115.174,2155.68 115.5,2147.5C 130.167,2147.5 144.833,2147.5 159.5,2147.5C 159.5,2142.83 159.5,2138.17 159.5,2133.5C 144.99,2133.83 130.657,2133.5 116.5,2132.5 Z"/></g>
<g><path style="opacity:1" fill="#9e9fc9" d="M 574.5,2132.5 C 589.167,2132.5 603.833,2132.5 618.5,2132.5C 618.5,2137.83 618.5,2143.17 618.5,2148.5C 603.833,2148.5 589.167,2148.5 574.5,2148.5C 574.5,2156.17 574.5,2163.83 574.5,2171.5C 573.508,2163.68 573.174,2155.68 573.5,2147.5C 588.167,2147.5 602.833,2147.5 617.5,2147.5C 617.5,2142.83 617.5,2138.17 617.5,2133.5C 602.99,2133.83 588.657,2133.5 574.5,2132.5 Z"/></g>
<g><path style="opacity:1" fill="#aaabd0" d="M 918.5,2147.5 C 904.343,2148.5 890.01,2148.83 875.5,2148.5C 875.5,2156.17 875.5,2163.83 875.5,2171.5C 875.167,2171.5 874.833,2171.5 874.5,2171.5C 874.5,2163.5 874.5,2155.5 874.5,2147.5C 889.167,2147.5 903.833,2147.5 918.5,2147.5 Z"/></g>
<g><path style="opacity:1" fill="#7173b1" d="M 383.5,2150.5 C 384.043,2150.56 384.376,2150.89 384.5,2151.5C 376.343,2152.82 368.343,2152.82 360.5,2151.5C 368.352,2151.83 376.018,2151.49 383.5,2150.5 Z"/></g>
<g><path style="opacity:1" fill="#7173b1" d="M 1258.5,2150.5 C 1259.04,2150.56 1259.38,2150.89 1259.5,2151.5C 1251.34,2152.82 1243.34,2152.82 1235.5,2151.5C 1243.35,2151.83 1251.02,2151.49 1258.5,2150.5 Z"/></g>
<g><path style="opacity:1" fill="#7173b1" d="M 1502.5,2150.5 C 1509.98,2151.49 1517.65,2151.83 1525.5,2151.5C 1517.66,2152.82 1509.66,2152.82 1501.5,2151.5C 1501.62,2150.89 1501.96,2150.56 1502.5,2150.5 Z"/></g>
<g><path style="opacity:1" fill="#9999c7" d="M 116.5,2171.5 C 132.833,2171.5 149.167,2171.5 165.5,2171.5C 165.5,2176.83 165.5,2182.17 165.5,2187.5C 142.994,2187.83 120.66,2187.5 98.5,2186.5C 120.5,2186.5 142.5,2186.5 164.5,2186.5C 164.5,2181.83 164.5,2177.17 164.5,2172.5C 148.325,2172.83 132.325,2172.5 116.5,2171.5 Z"/></g>
<g><path style="opacity:1" fill="#9899c6" d="M 574.5,2171.5 C 590.833,2171.5 607.167,2171.5 623.5,2171.5C 623.5,2176.83 623.5,2182.17 623.5,2187.5C 600.994,2187.83 578.66,2187.5 556.5,2186.5C 578.5,2186.5 600.5,2186.5 622.5,2186.5C 622.5,2181.83 622.5,2177.17 622.5,2172.5C 606.325,2172.83 590.325,2172.5 574.5,2171.5 Z"/></g>
<g><path style="opacity:1" fill="#9d9dc9" d="M 874.5,2171.5 C 874.833,2171.5 875.167,2171.5 875.5,2171.5C 891.833,2171.5 908.167,2171.5 924.5,2171.5C 924.5,2176.83 924.5,2182.17 924.5,2187.5C 901.994,2187.83 879.66,2187.5 857.5,2186.5C 879.5,2186.5 901.5,2186.5 923.5,2186.5C 923.5,2181.83 923.5,2177.17 923.5,2172.5C 906.991,2172.83 890.658,2172.5 874.5,2171.5 Z"/></g>
<g><path style="opacity:1" fill="#b3b3d5" d="M 329.5,2185.5 C 335.31,2186.49 341.31,2186.82 347.5,2186.5C 341.322,2187.82 334.988,2187.82 328.5,2186.5C 328.624,2185.89 328.957,2185.56 329.5,2185.5 Z"/></g>
<g><path style="opacity:1" fill="#b3b3d5" d="M 1204.5,2185.5 C 1210.31,2186.49 1216.31,2186.82 1222.5,2186.5C 1216.32,2187.82 1209.99,2187.82 1203.5,2186.5C 1203.62,2185.89 1203.96,2185.56 1204.5,2185.5 Z"/></g>
<g><path style="opacity:1" fill="#b5b5d6" d="M 1538.5,2185.5 C 1544.93,2186.81 1551.27,2186.81 1557.5,2185.5C 1557.83,2185.5 1558.17,2185.5 1558.5,2185.5C 1558.5,2186.17 1558.5,2186.83 1558.5,2187.5C 1551.42,2188.13 1544.75,2187.46 1538.5,2185.5 Z"/></g>
</svg>
